<svg width="400" height="400" viewBox="0 0 400 400" fill="currentColor" xmlns="http://www.w3.org/2000/svg">
<path d="M253.621 265.214C255.944 270.011 258.234 274.625 260.361 279.284C260.511 279.739 260.83 280.128 261.258 280.382C261.687 280.636 262.198 280.737 262.7 280.668C273.801 280.566 284.908 280.499 296.02 280.468C297.803 280.468 297.95 280.007 297.345 278.577C292.258 266.275 286.369 254.372 280.71 242.347C274.166 228.508 267.46 214.945 261.506 200.951C260.636 198.902 260.197 196.714 260.214 194.508C260.214 169.596 260.214 144.69 260.214 119.788C260.06 119.037 260.151 118.26 260.475 117.559C261.841 118.706 262.996 120.056 263.894 121.557C265.415 123.617 266.871 125.724 268.376 127.815C269.03 128.723 269.619 128.784 270.159 127.692C270.371 127.247 270.699 126.862 270.911 126.416C274.69 118.02 282.035 114.114 290.982 112.177C296.841 111.001 302.953 111.819 308.229 114.487C313.505 117.154 317.601 121.496 319.788 126.739C320.638 128.738 321.025 130.885 320.92 133.036C320.816 135.187 320.223 137.292 319.182 139.21C317.841 141.985 315.452 144.192 312.478 145.405C309.505 146.618 306.158 146.75 303.087 145.776C300.285 144.978 297.594 143.868 295.071 142.47C294.407 141.977 293.618 141.654 292.782 141.532C292.912 153.911 301.745 161.523 313.245 160.154C317.588 159.736 321.759 158.334 325.4 156.068C329.041 153.803 332.043 150.741 334.15 147.145C334.284 146.937 334.431 146.736 334.591 146.545C334.591 146.545 334.69 146.545 334.804 146.545C335.197 146.868 335.017 147.329 335.017 147.699C335.017 176.547 335.017 205.38 334.902 234.228C334.902 246.115 333.708 257.925 329.717 269.32C324.809 283.405 315.469 294.631 303.545 304.011C285.077 318.389 263.812 327.339 240.715 332.675C225.686 336.297 210.168 337.8 194.669 337.134C159.843 335.335 127.701 325.986 99.7946 305.81C83.1427 293.785 72.4286 278.269 68.5026 258.709C66.937 250.663 66.1434 242.5 66.1311 234.32C66.0163 205.241 66.1311 176.162 66.1311 146.914C67.0907 147.612 67.8963 148.479 68.5026 149.467C72.0686 153.88 75.9946 157.879 81.9325 159.401C89.4405 161.339 96.6542 160.939 102.576 155.633C104.585 153.811 106.116 151.575 107.047 149.101C107.978 146.627 108.284 143.983 107.941 141.379C107.107 141.255 106.681 141.901 106.109 142.24C102.384 144.767 97.9413 146.191 93.35 146.33C91.3809 146.351 89.4314 145.964 87.6398 145.197C85.8479 144.429 84.2584 143.299 82.9841 141.888C81.7093 140.477 80.7816 138.82 80.2662 137.033C79.7507 135.247 79.6605 133.375 80.0023 131.552C80.7328 126.176 83.5093 121.23 87.8184 117.628C92.1272 114.027 97.6774 112.014 103.443 111.961C107.861 111.758 112.27 112.507 116.332 114.151C120.395 115.796 124.004 118.292 126.883 121.449C128.145 122.934 129.175 124.581 129.942 126.339C130.317 127.37 130.938 128.306 131.757 129.076L139.936 118.312C140.525 118.85 140.263 119.419 140.263 119.927C140.263 143.66 140.263 167.392 140.263 191.125C140.201 192.714 139.824 194.279 139.151 195.738C133.524 209.316 126.965 222.51 120.782 235.858C114.238 250.174 107.483 264.46 100.891 278.777C99.2549 282.313 99.3858 282.344 103.394 282.39C113.715 282.498 124.037 282.59 134.358 282.79C134.953 282.86 135.555 282.728 136.056 282.418C136.557 282.108 136.923 281.64 137.09 281.099C139.756 275.378 142.684 269.766 144.958 263.891C145.074 263.67 145.211 263.459 145.367 263.261C146.249 263.706 146.971 264.385 147.444 265.214C156.228 277.516 169.102 283.805 183.987 286.742C193.515 288.74 203.368 288.953 212.984 287.37C222.6 285.787 231.79 282.439 240.028 277.516C243.544 275.509 246.629 272.902 249.123 269.827C250.426 268.129 251.936 266.581 253.621 265.214ZM193.769 313.622C193.916 315.257 193.629 316.9 192.935 318.405C192.656 319.005 192.199 319.516 191.619 319.879C191.038 320.242 190.36 320.44 189.663 320.45C188.999 320.487 188.344 320.294 187.82 319.909C187.296 319.525 186.939 318.973 186.817 318.358C186.604 317.482 186.048 317.512 185.378 317.589C184.412 317.697 183.431 317.866 182.466 317.897C181.501 317.928 181.435 318.282 181.599 319.05C181.868 320.418 182.575 321.676 183.624 322.657C184.673 323.638 186.015 324.295 187.471 324.54C189.796 325.019 192.228 324.651 194.274 323.509C196.321 322.367 197.83 320.537 198.496 318.389C200.124 313.613 200.124 308.479 198.496 303.704C198.166 302.524 197.569 301.425 196.747 300.482C195.924 299.539 194.895 298.773 193.729 298.237C192.563 297.702 191.288 297.409 189.991 297.378C188.694 297.348 187.405 297.58 186.212 298.06C181.452 299.875 179.292 305.749 181.599 310.608C183.856 315.083 188.371 316.236 193.769 313.622ZM213.807 297.86H207.918C207.133 297.86 206.561 297.86 206.381 298.844C205.645 302.781 204.843 306.687 204.074 310.608C203.976 311.069 203.747 311.777 204.499 311.823C206.135 311.915 207.771 312.946 209.407 311.423C210.037 310.867 210.836 310.51 211.692 310.402C212.549 310.295 213.42 310.442 214.183 310.824C214.917 311.174 215.528 311.716 215.942 312.384C216.357 313.052 216.558 313.818 216.522 314.591C216.69 315.884 216.487 317.195 215.934 318.389C215.674 318.991 215.238 319.512 214.677 319.89C214.115 320.269 213.45 320.489 212.76 320.527C212.036 320.642 211.292 320.515 210.656 320.17C210.02 319.825 209.532 319.282 209.276 318.635C208.703 316.467 207.313 316.836 205.759 317.097C205.311 317.174 204.856 317.206 204.401 317.19C203.24 317.19 203.175 317.636 203.436 318.574C204.516 322.495 208 324.725 212.973 324.617C218.78 324.479 222.689 319.773 222.002 313.714C221.903 312.53 221.523 311.382 220.892 310.354C220.261 309.325 219.393 308.442 218.352 307.769C217.311 307.095 216.124 306.648 214.876 306.461C213.629 306.274 212.352 306.351 211.141 306.687C210.781 306.794 210.11 306.964 210.127 306.687C210.186 305.531 210.362 304.383 210.65 303.258C210.879 302.381 211.73 302.766 212.286 302.75C213.922 302.75 215.557 302.75 217.193 302.75C221.07 302.75 221.037 302.75 220.857 299.075C220.857 298.214 220.579 297.875 219.63 297.906C217.716 297.891 215.754 297.86 213.807 297.86ZM232.553 319.389C233.734 317.813 235.137 316.395 236.724 315.175C239.283 313.249 241.309 310.769 242.629 307.948C243.065 307.016 243.294 306.011 243.302 304.994C243.309 303.976 243.096 302.968 242.675 302.031C242.254 301.094 241.634 300.247 240.852 299.543C240.071 298.839 239.145 298.293 238.131 297.937C232.896 296.153 227.204 298.183 225.601 302.412C224.603 305.026 224.685 305.072 227.564 305.488C229.199 305.749 230.459 305.933 230.835 303.734C231.114 302.043 233.011 301.289 235.056 301.658C235.836 301.761 236.548 302.132 237.052 302.701C237.557 303.269 237.819 303.994 237.787 304.734C237.856 305.548 237.731 306.366 237.423 307.129C237.115 307.892 236.63 308.581 236.004 309.147C233.862 311.223 231.637 313.207 229.461 315.298C227.256 317.234 225.617 319.67 224.701 322.372C224.276 323.771 224.358 324.309 226.157 324.279C230.721 324.156 235.284 324.279 239.865 324.279C243.332 324.279 243.251 324.279 243.283 320.972C243.283 319.711 242.842 319.435 241.648 319.435C238.671 319.481 235.775 319.419 232.553 319.419V319.389ZM167.859 305.026V320.819C167.859 324.202 167.859 324.125 171.392 324.202C172.831 324.202 173.273 323.91 173.257 322.495C173.257 314.806 173.257 307.117 173.257 299.306C173.257 298.629 173.829 297.383 172.521 297.399C171.212 297.414 169.445 296.446 168.513 298.198C167.577 300.192 165.886 301.787 163.769 302.673C160.89 303.75 160.612 305.641 160.939 307.994C160.939 308.178 160.939 308.348 161.037 308.609C163.541 307.866 165.861 306.658 167.859 305.057V305.026Z" fill="currentColor"/>
<path d="M277.241 278.454C274.559 278.454 271.876 278.377 269.21 278.454C268.674 278.522 268.129 278.404 267.68 278.121C267.231 277.837 266.908 277.408 266.773 276.916C258.452 260.226 250.088 243.562 241.68 226.923C241.206 225.985 240.535 225.124 240.142 224.156C239.967 223.614 239.679 223.11 239.296 222.674C238.914 222.237 238.443 221.875 237.911 221.609C237.379 221.343 236.797 221.179 236.198 221.125C235.598 221.071 234.993 221.129 234.418 221.295C233.514 221.423 232.599 221.475 231.686 221.449H166.992C164.374 221.449 161.773 221.372 159.156 221.326C158.42 221.326 157.766 221.326 157.422 222.126C153.693 231.168 148.687 239.625 144.336 248.421C140.263 256.756 135.831 264.952 132.068 273.425C129.991 278.039 128.535 278.93 123.055 278.73C118.998 278.577 114.876 278.362 110.901 278.362C108.759 278.362 108.759 278.361 109.658 276.501L130.923 234.12C148.066 199.849 165.225 165.572 182.4 131.291C186.752 122.633 190.972 113.929 195.225 105.226C195.408 104.758 195.744 104.358 196.185 104.081C196.626 103.805 197.149 103.667 197.678 103.688C200.312 103.427 201.637 104.319 202.782 106.641C216.081 133.705 229.543 160.708 242.891 187.757C257.471 217.302 272.007 246.863 286.5 276.439C287.449 278.377 287.449 278.377 285.093 278.377L277.241 278.454ZM229.919 204.165C229.762 202.759 229.3 201.398 228.561 200.167C226.713 196.184 224.194 192.478 222.231 188.603C219.843 183.851 217.667 178.976 215.312 174.194C210.306 164.06 205.399 153.896 199.739 144.085C199.281 143.27 198.971 142.286 197.907 141.84C196.55 145.469 194.848 148.837 193.18 152.235C187.079 164.721 180.094 176.839 174.434 189.495C174.052 190.398 173.575 191.263 173.011 192.078C170.701 195.563 168.793 199.269 167.319 203.135C166.926 204.057 167.319 204.334 168.235 204.288C170.198 204.211 172.144 204.149 174.107 204.134L225.241 203.857C226.811 203.842 228.3 204.549 229.919 204.165Z" fill="currentColor"/>
<path d="M66 123.048V63.4142C66 60.4463 66 60.3387 68.8789 61.8765C77.9737 66.9203 87.0193 72.0871 96.0979 77.1617C110.476 85.158 124.527 93.6771 139.069 101.412C139.642 101.704 140.181 101.95 140.165 102.75C140.165 106.656 140.165 110.577 140.165 114.514C139.38 114.606 139.118 114.098 138.84 113.76C129.385 102.027 116.447 94.3693 103.36 86.8803C93.3523 80.9357 83.0284 75.4747 72.4284 70.5186C71.5614 70.1342 70.4656 69.2423 69.7786 69.7036C69.0916 70.1649 69.6147 71.5028 69.7786 72.4408C70.2105 78.3243 71.5382 84.1191 73.7207 89.6483C74.6411 92.1513 76.0947 94.4516 77.9933 96.408C79.8919 98.3647 82.1951 99.9365 84.7621 101.028C85.58 101.381 86.3975 101.843 87.4119 102.381C83.0449 105.043 78.9926 108.136 75.3239 111.607C71.8091 115.071 68.8502 118.998 66.5397 123.264L66 123.048Z" fill="currentColor"/>
<path d="M331.221 69.1649C326.412 71.1486 322.077 73.2707 317.791 75.4697C302.821 82.8807 288.506 91.4066 274.983 100.966C270.597 104.182 266.696 107.942 263.386 112.145C262.547 113.297 261.487 114.293 260.262 115.082V104.933C260.262 104.256 260.867 104.041 261.358 103.764C285.043 89.9246 308.288 75.4543 332.219 61.999C333.027 61.4253 333.951 61.012 334.934 60.7842V123.74C334.108 122.809 333.425 121.774 332.906 120.664C328.718 113.145 322.306 107.655 314.912 103.149C313.767 102.457 313.604 102.15 314.781 101.504C315.24 101.258 315.648 100.935 316.106 100.72C323.696 97.275 327.377 91.1702 329.193 83.8044C330.336 78.9919 331.015 74.0922 331.221 69.1649Z" fill="currentColor"/>
<path d="M193.475 307.348C193.413 307.958 193.287 308.561 193.098 309.147C192.889 309.803 192.463 310.379 191.883 310.792C191.302 311.205 190.597 311.434 189.869 311.446C189.14 311.459 188.427 311.253 187.832 310.859C187.236 310.465 186.789 309.903 186.555 309.255C185.82 307.469 185.82 305.489 186.555 303.703C186.718 303.2 187.02 302.746 187.432 302.389C187.844 302.032 188.349 301.785 188.897 301.674C189.444 301.563 190.012 301.591 190.544 301.756C191.076 301.921 191.551 302.216 191.92 302.611C192.532 303.246 192.988 303.999 193.257 304.818C193.525 305.636 193.599 306.5 193.475 307.348Z" fill="currentColor"/>
</svg>
