<svg width="60" height="60" viewBox="0 0 60 60" fill="none" xmlns="http://www.w3.org/2000/svg">
    <rect width="60" height="60" rx="18" fill="#05DC9C"/>
    <path d="M31 0H42C51.9411 0 60 8.05888 60 18V30H49C39.0589 30 31 21.9411 31 12V0Z" fill="#07EFAA"/>
    <path d="M19.144 25.6048C19.4298 24.7984 20.5702 24.7984 20.856 25.6048L21.6373 27.81C21.7288 28.0681 21.9319 28.2712 22.19 28.3627L24.3952 29.144C25.2016 29.4298 25.2016 30.5702 24.3952 30.856L22.19 31.6373C21.9319 31.7288 21.7288 31.9319 21.6373 32.19L20.856 34.3952C20.5702 35.2016 19.4298 35.2016 19.144 34.3952L18.3627 32.19C18.2712 31.9319 18.0681 31.7288 17.81 31.6373L15.6048 30.856C14.7984 30.5702 14.7984 29.4298 15.6048 29.144L17.81 28.3627C18.0681 28.2712 18.2712 28.0681 18.3627 27.81L19.144 25.6048Z" fill="white"/>
    <path d="M31.644 38.1048C31.9298 37.2984 33.0702 37.2984 33.356 38.1048L34.1373 40.31C34.2288 40.5681 34.4319 40.7712 34.69 40.8627L36.8952 41.644C37.7016 41.9298 37.7016 43.0702 36.8952 43.356L34.69 44.1373C34.4319 44.2288 34.2288 44.4319 34.1373 44.69L33.356 46.8952C33.0702 47.7016 31.9298 47.7016 31.644 46.8952L30.8627 44.69C30.7712 44.4319 30.5681 44.2288 30.31 44.1373L28.1048 43.356C27.2984 43.0702 27.2984 41.9298 28.1048 41.644L30.31 40.8627C30.5681 40.7712 30.7712 40.5681 30.8627 40.31L31.644 38.1048Z" fill="white"/>
    <path d="M34.949 13.4193C35.3833 12.1936 37.1167 12.1936 37.551 13.4193L39.0396 17.6203C39.1786 18.0127 39.4873 18.3214 39.8797 18.4604L44.0807 19.949C45.3064 20.3833 45.3064 22.1167 44.0807 22.551L39.8797 24.0396C39.4873 24.1786 39.1786 24.4873 39.0396 24.8797L37.551 29.0807C37.1167 30.3064 35.3833 30.3064 34.949 29.0807L33.4604 24.8797C33.3214 24.4873 33.0127 24.1786 32.6204 24.0396L28.4193 22.551C27.1936 22.1167 27.1936 20.3833 28.4193 19.949L32.6204 18.4604C33.0127 18.3214 33.3214 18.0127 33.4604 17.6203L34.949 13.4193Z" fill="white"/>
</svg>
